<svg id="Layer_1" data-name="Layer 1" xmlns="http://www.w3.org/2000/svg" xmlns:xlink="http://www.w3.org/1999/xlink" viewBox="0 0 230 110"><defs><style>.cls-1{fill:#3d3d3d;}.cls-2{fill:#231f20;}.cls-3{fill:url(#linear-gradient);}.cls-4{fill:url(#radial-gradient);}.cls-5{fill:url(#radial-gradient-2);}</style><linearGradient id="linear-gradient" x1="182.54" y1="69.48" x2="-4.23" y2="69.48" gradientUnits="userSpaceOnUse"><stop offset="0" stop-color="#f1bc36" stop-opacity="0.5"/><stop offset="0.31" stop-color="#ffe075" stop-opacity="0.6"/><stop offset="0.5" stop-color="#ffdf56" stop-opacity="0.4"/><stop offset="0.73" stop-color="#ffde33" stop-opacity="0.19"/><stop offset="0.91" stop-color="#ffdd1d" stop-opacity="0.05"/><stop offset="1" stop-color="#ffdd15" stop-opacity="0"/></linearGradient><radialGradient id="radial-gradient" cx="132.27" cy="69.16" fx="75.86002300622116" r="56.51" gradientUnits="userSpaceOnUse"><stop offset="0" stop-color="#f6921e"/><stop offset="1" stop-color="#f6921e" stop-opacity="0.5"/></radialGradient><radialGradient id="radial-gradient-2" cx="35.86" cy="42.41" r="3.72" gradientUnits="userSpaceOnUse"><stop offset="0.09" stop-color="#f6921e" stop-opacity="0.7"/><stop offset="0.53" stop-color="#faaf40" stop-opacity="0.7"/><stop offset="0.59" stop-color="#faaf40" stop-opacity="0.62"/><stop offset="0.7" stop-color="#faaf40" stop-opacity="0.48"/><stop offset="0.82" stop-color="#faaf40" stop-opacity="0.38"/><stop offset="0.92" stop-color="#faaf40" stop-opacity="0.32"/><stop offset="1" stop-color="#faaf40" stop-opacity="0.3"/></radialGradient></defs><title>iCreative</title><path class="cls-1" d="M227,3V107H3V3H227m3-3H0V110H230V0h0Z"/><path class="cls-2" d="M132.74,59.8s-0.1,4.48-1.72,6.79l3.23-.61Z"/><path class="cls-3" d="M31.94,73c82.29,18.82,147.09,3.17,159.83-.33,0.57-.16.61-0.51,0.08-0.78l-6.91-5.31-6.89.94L172.75,62l-3.64,3.35-1.94,5.39-3.9-3.48-9.43,3.6-4.62-3.73-7.65,3.5-7.39-4.21-5.38,3.9L125,69.56l-3-1.49-5.51,3.37L110.87,69,98.74,71.25l-4-5.87L88,64.65,85.4,59.79l-2-2.92L79.3,67.36c-0.48,1.88-.74,2.23-2.24,2.24l0.15,0.53a0.94,0.94,0,0,1-1.74.71c-0.29-.56,0-1.29.06-2.29l1-7.49-17.86,10L44.7,67l-9.93,4.6C33.69,72.07,30.78,72.73,31.94,73Z"/><path class="cls-4" d="M132.72,80.06l5-.41,5-.49,5-.56,5-.64c3.34-.46,6.67-0.95,10-1.51s6.63-1.13,9.93-1.76,6.58-1.34,9.85-2.11c1.63-.38,3.26-0.78,4.88-1.2l2.42-.63,1.2-.33h0l0.08,0h0l-0.08,0-0.14.07-0.17.11a2,2,0,0,0-.24.2l-0.15.16a1.75,1.75,0,0,0-.15.2,2.08,2.08,0,0,0-.27.63,2.14,2.14,0,0,0,0,.76,2.06,2.06,0,0,0,.06.33,2.59,2.59,0,0,0,.1.27,1.78,1.78,0,0,0,.11.22l0.1,0.15,0.1,0.13,0.08,0.09a1.27,1.27,0,0,0,.34.26l-0.36-.23-6.93-5.29,1.8,0.47-7.61,1.12-1.12.16-0.85-.77-2.62-2.35-2.61-2.35,3.51-.24-5.59,6.59-1.45,1.71-1.81-1.31-3.25-2.34,2.26,0.29L154.68,73l-1.28.48-1-.85-2.3-1.87-2.29-1.89,2.42,0.3-7.68,3.42-1.07.48-1-.57-7.34-4.3,2.31-.13L132.73,70,130,71.94l-0.75.53-0.83-.17-3.81-.8-0.3-.06-0.21-.11-3-1.54L123,69.7,117.43,73l-0.83.49-0.82-.38-5.57-2.57,1,0.11L99,72.67l-1,.16-0.5-.77L93.7,66.11l0.95,0.57-6.79-.86-0.64-.08-0.27-.54L84.45,60.3l0.06,0.1-1.94-3,1.78-.2-4.3,10.41,0-.09c-0.08.3-.16,0.59-0.27,0.91-0.06.16-.11,0.32-0.19,0.49s-0.08.17-.13,0.26a2.71,2.71,0,0,1-.17.27,2,2,0,0,1-.53.5,2.06,2.06,0,0,1-.64.27,4.6,4.6,0,0,1-1.07.09l0.71-.94,0.09,0.34,0,0.17a1.93,1.93,0,0,1,.05.26,1.61,1.61,0,0,1-.33,1.2,1.72,1.72,0,0,1-1,.62,1.59,1.59,0,0,1-1.2-.21,1.63,1.63,0,0,1-.59-0.71l0-.08-0.05-.16a2,2,0,0,1-.07-0.52,3.3,3.3,0,0,1,0-.43c0.07-.53.16-0.95,0.19-1.37V68.45L76.07,61l0.73,0.5-18,9.83-0.1.06-0.11,0-3.49-1.06-3.5-1-7-2.08h0.13L38.12,70.2l-3.33,1.53c-0.58.25-1.16,0.42-1.74,0.61-0.29.1-.58,0.19-0.85,0.31a1.72,1.72,0,0,0-.37.19s0,0,0,0a0.07,0.07,0,0,0,0,0s0,0,0,0a0.58,0.58,0,0,0,.17.06l5,1.06,2.48,0.53,2.49,0.48,5,1,5,0.85c3.33,0.6,6.69,1,10,1.51l5,0.6c0.84,0.1,1.68.21,2.52,0.29L72,79.39c1.68,0.16,3.36.35,5,.49s3.37,0.28,5.06.4,3.38,0.19,5.06.29l2.53,0.14,2.53,0.09c1.69,0.05,3.38.13,5.07,0.16L102.37,81c3.38,0,6.75,0,10.13-.05l2.53,0,2.53-.08c1.69-.07,3.37-0.1,5.06-0.2s3.37-.16,5.05-0.27l5-.34M31.91,73.13a0.8,0.8,0,0,1-.26-0.1,0.27,0.27,0,0,1-.08-0.08,0.21,0.21,0,0,1,0-.16,0.32,0.32,0,0,1,.11-0.16,1.89,1.89,0,0,1,.44-0.24c0.29-.12.58-0.22,0.87-0.32,0.58-.2,1.17-0.37,1.71-0.61L38,69.92l6.64-3.08,0.05,0,0.05,0,14,4.1H58.62l17.86-10,0.3-.17,0,0.34-1,7.49h0c0,0.48-.12,1-0.17,1.41a1.74,1.74,0,0,0,0,.63l0,0.06,0,0.08a0.74,0.74,0,0,0,.07.12,0.7,0.7,0,0,0,.2.2,0.8,0.8,0,0,0,1-.22,0.71,0.71,0,0,0,.14-0.53A2.36,2.36,0,0,0,77,70l-0.1-.34-0.06-.23h0.24a3.85,3.85,0,0,0,.85-0.08,1.14,1.14,0,0,0,.35-0.15,1,1,0,0,0,.27-0.26,3,3,0,0,0,.35-0.76c0.09-.28.16-0.56,0.24-0.85h0l4.1-10.49,0.13-.34,0.21,0.3,2,2.91h0l2.58,4.86L88,64.45l6.8,0.72H94.9L95,65.27l4,5.87L98.7,71l12.13-2.28h0.07l0.06,0,5.62,2.46h-0.21l5.51-3.37,0.11-.07,0.11,0.06,3,1.49-0.06,0,3.82,0.73-0.18,0L134,66.19l0.12-.09,0.13,0.08,7.39,4.21h-0.22l7.64-3.5,0.14-.06,0.12,0.1L154,70.62l-0.25,0,9.43-3.6,0.13-.05L163.42,67l3.26,2.33-0.36,0,5.57-6.61,0.18-.21,0.21,0.19,5.21,4.72-0.22-.07,7.62-1.08,0.11,0,0.09,0.07L192,71.69l0,0a1.34,1.34,0,0,1,.32.23,0.56,0.56,0,0,1,.18.52,0.62,0.62,0,0,1-.34.39l-0.19.08-0.08,0-0.09,0-1.23.33c-0.82.21-1.64,0.43-2.46,0.63-1.64.41-3.3,0.79-4.95,1.16q-5,1.1-10,2c-3.34.59-6.68,1.16-10,1.64s-6.71.92-10.08,1.32l-5.05.54-5.06.47-5.07.39-5.07.32-5.07.24c-1.69.08-3.39,0.11-5.08,0.17s-3.39.07-5.08,0.1l-2.54,0H112.5c-3.39,0-6.77-.07-10.16-0.15l-5.08-.19c-1.69-.06-3.38-0.18-5.07-0.26l-2.54-.14-2.53-.19c-1.69-.13-3.38-0.23-5.07-0.39L77,80.5c-1.69-.15-3.37-0.37-5.05-0.55l-2.52-.28c-0.84-.1-1.68-0.22-2.52-0.33l-5-.66-5-.77-2.51-.39-2.5-.43-5-.88-5-1-2.49-.49-2.48-.54Z"/><path d="M157.18,49.51a5,5,0,0,0,2-.35,4,4,0,0,0,1.36-.91,3.46,3.46,0,0,0,.79-1.28,4.52,4.52,0,0,0,.25-1.48,3.18,3.18,0,0,0-.3-1.44,2.61,2.61,0,0,0-.82-1,3.62,3.62,0,0,0-1.21-.55,5.92,5.92,0,0,0-1.48-.18,5,5,0,0,0-2.1.39,4,4,0,0,0-1.35,1,3.77,3.77,0,0,0-1,2.39,3.33,3.33,0,0,0,.94,2.48A4,4,0,0,0,157.18,49.51Z"/><path d="M200.71,68.93c-0.37-.13-0.41-0.26-0.43.19,0,0.24-.53.17-0.51-0.19,0-.82.3-0.91,0-1a1.53,1.53,0,0,1-.92-0.29c-0.34-.31-0.89,1.23-1.06.51,0,0,.41-0.14.2-0.74s0.4-.11.89-0.85c0.3-.45,0-0.86-0.38-0.7a1.15,1.15,0,0,0-.31,0,15.5,15.5,0,0,1-2.12,1.39,18.57,18.57,0,0,1-2.9,1.35,8.36,8.36,0,0,1-2.84.54,3.37,3.37,0,0,1-.8-0.09,2.2,2.2,0,0,1-.71-0.31,3,3,0,0,1-.66-0.63,7.13,7.13,0,0,1-.66-1,15.42,15.42,0,0,0,3.62-1.5,13.38,13.38,0,0,0,2.88-2.2,10.14,10.14,0,0,0,1.9-2.62A6.25,6.25,0,0,0,196.6,58a5.74,5.74,0,0,0-.45-2.31A5.14,5.14,0,0,0,194.91,54,5.72,5.72,0,0,0,193,52.82a6.6,6.6,0,0,0-2.33-.4,7,7,0,0,0-2.81.55,8.24,8.24,0,0,0-2.29,1.48,10.21,10.21,0,0,0-1.78,2.15,14.42,14.42,0,0,0-1.27,2.57,15.84,15.84,0,0,0-1,5.41h0a12.88,12.88,0,0,1-1.38.64,4.35,4.35,0,0,1-1.56.35,3.89,3.89,0,0,1-1.5-.25,2.31,2.31,0,0,1-.92-0.66,2.45,2.45,0,0,1-.47-0.93,4.16,4.16,0,0,1-.13-1.05,6.08,6.08,0,0,1,.08-1,7.06,7.06,0,0,1,.19-0.86,7.55,7.55,0,0,1,.27-0.83q0.49-1.1.91-1.91c0.28-.54.08,0,0.28-0.48a2.68,2.68,0,0,0,.27-0.61,4.11,4.11,0,0,0,.17-1.19,1.58,1.58,0,0,0-.78-1.36,3.69,3.69,0,0,0-2.09-.53,3.13,3.13,0,0,0-.93.13,3.64,3.64,0,0,0-.8.35,1.91,1.91,0,0,0-.58.5C171.89,55.84,167,68,167,68l-0.31,0,0.86-13.93h0l0-.26a1.59,1.59,0,0,0,0-.29c-0.21-3.89-2.58-4.84-4.61-3.34S161.7,58,161.7,58h0c0,0.51,0,1,0,1.5s0,1.19.08,1.86,0.08,1.42.12,2.25q0,0.91.1,2.06l-0.38.34q-1,.85-2,1.65a16,16,0,0,1-2,1.36,3.7,3.7,0,0,1-1.79.56A0.89,0.89,0,0,1,155,69a4.65,4.65,0,0,1-.22-1.6A13.65,13.65,0,0,1,155,65.1q0.22-1.29.56-2.65t0.72-2.71L157,57.21q0.34-1.18.56-2.11a6.64,6.64,0,0,0,.22-1.42,1.28,1.28,0,0,0-.34-0.93,1.78,1.78,0,0,0-1.28-.35,6.17,6.17,0,0,0-1.16.12,5.93,5.93,0,0,0-1.23.38,4,4,0,0,0-1.07.67,2,2,0,0,0-.63,1q-0.4,1.68-.93,3.68t-1,4q-0.25,1.07-.46,2.1a0.76,0.76,0,0,0-.25.14l-0.22.19q-0.83.71-1.74,1.35t-1.84,1.18q-0.93.54-1.77,0.93a12.94,12.94,0,0,1-1.55.62,4,4,0,0,1-1.18.22,3.84,3.84,0,0,1-1.38-.24,2.44,2.44,0,0,1-1-.76,3.64,3.64,0,0,1-.65-1.36,6.64,6.64,0,0,1-.19-1.19c-0.11-2,.37-7.54.62-10.26,0.08-.86.81-2.3,1.67-2.27,2.25,0.06,5.11.13,8.71,0.2l0.4,0a1.32,1.32,0,0,0,1-.49,1.83,1.83,0,0,0,.45-1.28c0-.43,0-0.78,0-1.1a1.59,1.59,0,0,0-.16-1h0l-0.07,0h-0.37c-1.23-.09-4.84-0.35-9.3-0.51a1.28,1.28,0,0,1-1.21-1.54,96,96,0,0,1,2.6-9.32,7.8,7.8,0,0,0,.32-1.48c0.09-.56-0.48-0.58-0.75-0.15s-0.94,1-1.13.79,0.07-.94.69-1.61a0.35,0.35,0,0,0,0-.5c-0.26-.18-0.88-0.19-0.73-0.41a6.47,6.47,0,0,0,.87-1.12c-0.31-1-.94-0.24-0.94-0.24-0.63.79-.27,0.33-1.09,1.47a25.09,25.09,0,0,0-2,3.35,33.3,33.3,0,0,0-2.09,5q-0.71,2.16-1.23,4.43a1.51,1.51,0,0,1-1.46,1.16c-1.39,0-2.42.07-3.88,0.17a1.34,1.34,0,0,0-1.16.52c0,0.7,1.34.25,1.26,0.64s-1,0-1.26.72,0.5,1.42-.52.91c-0.75-.38-0.51.67-0.43,0.78,0.33,0.5,1.57.47,2.14,0.44a15.4,15.4,0,0,1,3-.06c0.73,0,1.27,1.46,1.2,2.18,0,0.43-.08.87-0.12,1.38q-0.11,1.53-.11,2.87a42.25,42.25,0,0,0,.29,5.14q-0.82,1.06-1.63,2-0.47.52-1,1a11.9,11.9,0,0,1-1.05.86,6.11,6.11,0,0,1-1,.62,2.38,2.38,0,0,1-1,.24,0.79,0.79,0,0,1-.82-0.59,5.62,5.62,0,0,1-.19-1.65,16.28,16.28,0,0,1,.22-2.61q0.22-1.38.49-2.76t0.49-2.69a14.3,14.3,0,0,0,.22-2.39,3.9,3.9,0,0,0-.12-1.1,1.48,1.48,0,0,0-.35-0.63,1.06,1.06,0,0,0-.52-0.29,2.79,2.79,0,0,0-.63-0.07h-1a4.78,4.78,0,0,1-.57,0A2.05,2.05,0,0,1,124,54a1,1,0,0,1-.45-0.36l-0.37-.5a2,2,0,0,0-.48-0.46,1.4,1.4,0,0,0-.81-0.2,7.43,7.43,0,0,0-3,.66A12.09,12.09,0,0,0,116,54.89a15.66,15.66,0,0,0-2.48,2.62,19.64,19.64,0,0,0-2,3.2,18.88,18.88,0,0,0-1.3,3.47c-0.12.44-.21,0.88-0.28,1.31l-0.06,0a24.6,24.6,0,0,1-2.67,1.76,18.53,18.53,0,0,1-2.9,1.35,8.37,8.37,0,0,1-2.84.54,3.36,3.36,0,0,1-.8-0.09,2.19,2.19,0,0,1-.71-0.31,3,3,0,0,1-.66-0.63,7.13,7.13,0,0,1-.66-1,15.42,15.42,0,0,0,3.62-1.5,13.36,13.36,0,0,0,2.88-2.2,10.14,10.14,0,0,0,1.9-2.62,6.25,6.25,0,0,0,.68-2.78,5.74,5.74,0,0,0-.45-2.31A5.14,5.14,0,0,0,106.09,54a5.71,5.71,0,0,0-1.87-1.13,6.59,6.59,0,0,0-2.33-.4,7,7,0,0,0-2.81.55,8.24,8.24,0,0,0-2.29,1.48A10.2,10.2,0,0,0,95,56.6a14.36,14.36,0,0,0-1.27,2.57A15.46,15.46,0,0,0,93,61.75L92.49,62a5.41,5.41,0,0,1-2.09.45,1.77,1.77,0,0,1-.68-0.13,1.46,1.46,0,0,1-.58-0.46A2.5,2.5,0,0,1,88.72,61a4.89,4.89,0,0,1-.16-1.35,7.72,7.72,0,0,1,.11-1.18q0.11-.71.25-1.46c0.09-.5.17-1,0.25-1.44a7.1,7.1,0,0,0,.11-1.07,2.11,2.11,0,0,0-.18-0.89A2,2,0,0,0,88.62,53a2.15,2.15,0,0,0-.71-0.41,2.43,2.43,0,0,0-.83-0.15,3.69,3.69,0,0,0-2.18.66,7.69,7.69,0,0,0-1.68,1.63,13.07,13.07,0,0,0-1.3,2.07l-1,2H80.67q0-1.14,0-2.32v-2c0-.16,0-0.3,0-0.44a29.45,29.45,0,0,0-.12-6c-0.29-1.71-1.67-2.48-2.85-.71a35.32,35.32,0,0,0-3.75,8.47s-0.05,1.41,1,.85c0.18-.1.4-0.26,0.71-0.47a2.83,2.83,0,0,1,.63-0.3h0q-0.29,1.14-.58,2.51l0,0.18c-1,.64-2,1.3-3,2L69,63a32.94,32.94,0,0,1-3.69,2.23,22,22,0,0,1-4,1.6,16.25,16.25,0,0,1-4.54.61,10.13,10.13,0,0,1-3.52-.57,6.65,6.65,0,0,1-2.64-1.75A8,8,0,0,1,49,62.17,13.06,13.06,0,0,1,48.37,58a21.75,21.75,0,0,1,.33-3.62,34.57,34.57,0,0,1,1-4.06,40.54,40.54,0,0,1,1.5-4.19,38,38,0,0,1,2-4,32.21,32.21,0,0,1,2.4-3.64,19.18,19.18,0,0,1,2.75-2.94,13,13,0,0,1,3-2,7.65,7.65,0,0,1,3.23-.72,6,6,0,0,1,2.38.43,4.48,4.48,0,0,1,1.6,1.13,4.24,4.24,0,0,1,.9,1.63,6.9,6.9,0,0,1,.28,2,8.22,8.22,0,0,1-.77,3.57,9.6,9.6,0,0,1-2,2.79,8.88,8.88,0,0,1-2.71,1.82,7.89,7.89,0,0,1-2.12.58c-6,.63-2.89-7.1-4.25-7-0.38,0-3.08,5.09-2.2,7.71A6.37,6.37,0,0,0,61.36,52h0l0.27,0a8.93,8.93,0,0,0,3.17-.6,14,14,0,0,0,3.06-1.62,16.27,16.27,0,0,0,2.75-2.42,18.15,18.15,0,0,0,2.22-3A15.76,15.76,0,0,0,74.3,41a11.53,11.53,0,0,0,.54-3.43A10.37,10.37,0,0,0,74,33.19a9.36,9.36,0,0,0-2.22-3.08,8.84,8.84,0,0,0-3.06-1.8,10.25,10.25,0,0,0-3.36-.59,14.79,14.79,0,0,0-4.92.83,19.18,19.18,0,0,0-4.5,2.29,25.48,25.48,0,0,0-4,3.42,33.47,33.47,0,0,0-3.46,4.26,39.58,39.58,0,0,0-2.81,4.8,41.8,41.8,0,0,0-2.1,5,35.87,35.87,0,0,0-1.32,4.94,24.44,24.44,0,0,0-.46,4.54,18.32,18.32,0,0,0,1,5.92c0.11,0.33.24,0.64,0.37,1-1.16,1-2.9,2.62-3.39,3a15.94,15.94,0,0,1-2,1.36,3.7,3.7,0,0,1-1.79.56A0.89,0.89,0,0,1,35,69a4.66,4.66,0,0,1-.22-1.6A13.7,13.7,0,0,1,35,65.1q0.22-1.29.56-2.65t0.72-2.71L37,57.21q0.34-1.18.56-2.11a6.62,6.62,0,0,0,.22-1.42,1.28,1.28,0,0,0-.34-0.93,1.78,1.78,0,0,0-1.28-.35l-1.07,0a4.54,4.54,0,0,0-1.56,0,2.47,2.47,0,0,0-1,.93,4,4,0,0,0-.4,1.22q-0.4,1.68-.93,3.68t-1,4q-0.47,2-.8,3.88A19.49,19.49,0,0,0,29,69.42a7.54,7.54,0,0,0,.21,1.85,3.5,3.5,0,0,0,.71,1.42,3.27,3.27,0,0,0,1.29.91,5.2,5.2,0,0,0,2,.33,8.88,8.88,0,0,0,2.75-.47,19.8,19.8,0,0,0,2.84-1.18c0.93-.47,4.2-2.84,5-3.41,0.43-.3.81-0.59,1.16-0.87,0.16,0.22.32,0.45,0.5,0.66a13.18,13.18,0,0,0,4.26,3.38,12.29,12.29,0,0,0,5.6,1.25,29.08,29.08,0,0,0,5.11-.41,25.37,25.37,0,0,0,4.23-1.11,21.47,21.47,0,0,0,3.5-1.63,29.46,29.46,0,0,0,2.93-2q1.34-1,2.5-2.07l0.92-.83c-0.06.56-.12,1.12-0.17,1.65q-0.11,1.31-.11,2.3a14.61,14.61,0,0,0,.1,1.74,5,5,0,0,0,.4,1.5,2.35,2.35,0,0,0,2.34,1.45,1.83,1.83,0,0,0,.74-0.15,1.68,1.68,0,0,0,.63-0.5A4.9,4.9,0,0,0,79,72.35a14.49,14.49,0,0,0,.59-1.45l4-11.19H84q0.18,1.41.47,2.79a9.09,9.09,0,0,0,.9,2.49A5,5,0,0,0,87,66.79a4.83,4.83,0,0,0,2.71.68,6.23,6.23,0,0,0,1.85-.28,11.86,11.86,0,0,0,1.38-.53,11.48,11.48,0,0,0,.35,1.47,8.77,8.77,0,0,0,1.58,3,7.63,7.63,0,0,0,2.64,2.05,8.4,8.4,0,0,0,3.69.76,11.78,11.78,0,0,0,2.66-.3,16.12,16.12,0,0,0,2.53-.81,18.78,18.78,0,0,0,2.33-1.16c0.61-.36,1.17-0.72,1.71-1.08a6,6,0,0,0,1.12,1.7,5.45,5.45,0,0,0,1.81,1.26,5.27,5.27,0,0,0,2.1.44,6.35,6.35,0,0,0,2-.34,11,11,0,0,0,1.94-.86,11.74,11.74,0,0,0,1.72-1.18,10.88,10.88,0,0,0,1.32-1.28,7.78,7.78,0,0,0,1.7,2.77,3.41,3.41,0,0,0,2.47,1,5.55,5.55,0,0,0,2.47-.61A12.14,12.14,0,0,0,131.38,72a16.9,16.9,0,0,0,1.94-1.84c0.31-.35.58-0.67,0.83-1,0.11,0.3.22,0.59,0.34,0.86a7.78,7.78,0,0,0,2.18,3,4.7,4.7,0,0,0,3,1,6.34,6.34,0,0,0,1.85-.31,17.27,17.27,0,0,0,2.33-.94q1.31-.63,3-1.57L149,70a7.06,7.06,0,0,0,.2,1.31,3.49,3.49,0,0,0,.71,1.42,3.26,3.26,0,0,0,1.29.91,5.2,5.2,0,0,0,2,.33,8.88,8.88,0,0,0,2.75-.47,19.82,19.82,0,0,0,2.84-1.18,21.47,21.47,0,0,0,2.59-1.55c0.36-.25.68-0.49,1-0.73a8.78,8.78,0,0,0,.4,1.76,4,4,0,0,0,1.06,1.67,2.87,2.87,0,0,0,2,.66,2.7,2.7,0,0,0,1.67-.73,11.68,11.68,0,0,0,1.77-1.87A24.23,24.23,0,0,0,171,68.94q0.83-1.41,1.48-2.76a4,4,0,0,0,.39,1.64,4.68,4.68,0,0,0,1,1.41,4.86,4.86,0,0,0,1.61,1,5.94,5.94,0,0,0,2.16.37,9,9,0,0,0,3-.56,14.72,14.72,0,0,0,1.84-.81,8.51,8.51,0,0,0,1.15,1.88,7.63,7.63,0,0,0,2.64,2.05,8.4,8.4,0,0,0,3.69.76,11.78,11.78,0,0,0,2.66-.3,16.12,16.12,0,0,0,2.53-.81,18.73,18.73,0,0,0,2.33-1.16q1.11-.65,2.07-1.32C201.62,68.82,200.91,69,200.71,68.93ZM98.23,62.2a11.08,11.08,0,0,1,.19-1.44,8.86,8.86,0,0,1,.43-1.47,4.84,4.84,0,0,1,.74-1.3,3.58,3.58,0,0,1,1.14-.93,3.51,3.51,0,0,1,1.65-.36,1.07,1.07,0,0,1,.91.65,3.33,3.33,0,0,1,.37,1.66,2.51,2.51,0,0,1-.56,1.48,7.45,7.45,0,0,1-1.38,1.41A7.91,7.91,0,0,1,99.94,63a4.44,4.44,0,0,1-1.76.41Q98.18,62.9,98.23,62.2Zm22.92,1.1a12.71,12.71,0,0,1-.39,1.79,12.41,12.41,0,0,1-.8,2.09,7,7,0,0,1-1.17,1.73,2,2,0,0,1-1.5.72,1.36,1.36,0,0,1-.85-0.26,1.85,1.85,0,0,1-.54-0.67,3.23,3.23,0,0,1-.28-0.94,7.34,7.34,0,0,1-.08-1.09,9.38,9.38,0,0,1,.26-2.11,13.33,13.33,0,0,1,.73-2.23,14,14,0,0,1,1.12-2.12,11.14,11.14,0,0,1,1.42-1.79,6.69,6.69,0,0,1,1.65-1.24,3.81,3.81,0,0,1,1.79-.46ZM187,62.2a11.08,11.08,0,0,1,.19-1.44,8.77,8.77,0,0,1,.43-1.47,4.81,4.81,0,0,1,.74-1.3,3.58,3.58,0,0,1,1.14-.93,3.51,3.51,0,0,1,1.65-.36,1.06,1.06,0,0,1,.91.65,3.32,3.32,0,0,1,.37,1.66,2.51,2.51,0,0,1-.56,1.48,7.43,7.43,0,0,1-1.38,1.41A7.91,7.91,0,0,1,188.76,63a4.44,4.44,0,0,1-1.76.41Q187,62.9,187,62.2Z"/><path d="M35.34,49.63a1.14,1.14,0,0,1-.48-0.1,1.16,1.16,0,0,1-.5-0.67,1.27,1.27,0,0,1-.07-0.35,0.18,0.18,0,0,1,.1-0.16,0.31,0.31,0,0,1,.23,0,5.47,5.47,0,0,0,.82.26,1.65,1.65,0,0,0,.55,0c-0.17,0,.39,0-0.61-0.17a6.1,6.1,0,0,1-1.06-.31,1.56,1.56,0,0,1-.4-0.17,0.41,0.41,0,0,1-.2-0.36h0a0.23,0.23,0,0,1,.14-0.17,2.93,2.93,0,0,1,1.44.24c0.33,0.08.69,0.16,1,.21,0.06,0,.13,0,0.09-0.05-0.25-.08-0.63-0.19-1-0.27l-1.09-.24c-0.47-.11-0.62-0.1-0.66-0.35a0.37,0.37,0,0,1,.14-0.33,1.92,1.92,0,0,1,.76,0c0.31,0,.67,0,1,0a6.47,6.47,0,0,1,.91.09,0.58,0.58,0,0,0,.3,0s0.13-.15-0.07-0.19A7.14,7.14,0,0,0,36,46.47c-0.61-.05-2.2.05-2.36-0.75a4.89,4.89,0,0,1-.11-0.56A3.21,3.21,0,0,0,33,43.49a4.38,4.38,0,0,1-1.17-1.71,2.33,2.33,0,0,1,0-1.59A2.76,2.76,0,0,1,32.79,39a4.89,4.89,0,0,1,1.69-.8h0a4.85,4.85,0,0,1,1-.15,6,6,0,0,1,1.26.07,4.25,4.25,0,0,1,2.49,1.27h0a3,3,0,0,1,.7,1.2,2,2,0,0,1,0,1.13,4.15,4.15,0,0,1-1.56,1.92A2.14,2.14,0,0,0,38,44a7.27,7.27,0,0,0-.61,1.64,0.83,0.83,0,0,1-.39.49,1.5,1.5,0,0,1-1.19.07,1,1,0,0,1-.26-0.12,0.56,0.56,0,0,1-.29-0.46h0s0-1.69,0-2.24a1,1,0,0,0-.52-0.47,3.29,3.29,0,0,1-.4-0.28,0.49,0.49,0,0,1-.18-0.38,0.43,0.43,0,0,1,.16-0.33h0a0.59,0.59,0,0,1,.5-0.09,0.88,0.88,0,0,1,.3.16l0.06,0,0-.11a0.84,0.84,0,0,1,.16-0.31,0.63,0.63,0,0,1,.53-0.18,0.59,0.59,0,0,1,.45.22,0.72,0.72,0,0,1,.11.28v0l0.1-.08a1.44,1.44,0,0,1,.25-0.18,0.56,0.56,0,0,1,.45,0h0a0.5,0.5,0,0,1,.36.34,1.25,1.25,0,0,1-.55,1,2.47,2.47,0,0,1-1,.4,0.25,0.25,0,0,1-.29-0.15A0.2,0.2,0,0,1,36,43h0a1.91,1.91,0,0,0,.76-0.29h0a1,1,0,0,0,.41-0.64,0.07,0.07,0,0,0,0-.05,1.26,1.26,0,0,0-.16.12,0.83,0.83,0,0,1-.52.25H36.39a0.39,0.39,0,0,1-.31-0.18A0.68,0.68,0,0,1,36,42c0-.18-0.07-0.19-0.12-0.19a0.08,0.08,0,0,0-.08,0,0.61,0.61,0,0,0-.09.19,1,1,0,0,1-.09.2,0.43,0.43,0,0,1-.27.19,0.56,0.56,0,0,1-.37,0,1.09,1.09,0,0,1-.2-0.12l-0.11-.07h0a0.15,0.15,0,0,0,0,.2,2.94,2.94,0,0,0,.34.23,1.16,1.16,0,0,1,.71.76c0,0.54,0,2.19,0,2.23a0.22,0.22,0,0,0,.11.18l0.11,0h0a0.91,0.91,0,0,0,.7,0h0a0.47,0.47,0,0,0,.2-0.26h0A6.24,6.24,0,0,1,38,43.34h0c1.7-1.31,2-2.51.82-3.78a4.51,4.51,0,0,0-4.21-1,3.26,3.26,0,0,0-2.34,1.78c-0.34.92,0.05,2,1.1,3l0,0A3.58,3.58,0,0,1,34,44.87c0,0.1,0,.19,0,0.27a1,1,0,0,0,.12.51,0.37,0.37,0,0,0,.41.21,4.62,4.62,0,0,1,1.39,0,3.28,3.28,0,0,1,1.44.53,0.54,0.54,0,0,1-.56.84c-0.12,0-.89-0.14-1.28-0.15S34.94,47,34.59,47a0.25,0.25,0,0,0-.19,0s0,0.13.29,0.1a3.82,3.82,0,0,1,.86.15c0.4,0.1.82,0.2,1.11,0.3a1.87,1.87,0,0,1,.38.14,0.29,0.29,0,0,1,.17.33,0.31,0.31,0,0,1-.19.18A3.7,3.7,0,0,1,35.14,48a2.93,2.93,0,0,0-.67-0.16s-0.07.09,0,.11a10.39,10.39,0,0,1,1.06.27c0.3,0.07.58,0.07,0.79,0.14a1.27,1.27,0,0,1,.29.13,0.27,0.27,0,0,1,.16.28,0.3,0.3,0,0,1-.19.21,0.85,0.85,0,0,1-.36.06,4.73,4.73,0,0,1-.95-0.13l-0.47-.11a0.78,0.78,0,0,0,.28.42,1,1,0,0,0,.75-0.07,0.29,0.29,0,0,1,.33.08,0.17,0.17,0,0,1-.11.25,2.1,2.1,0,0,1-.74.16h0Z"/><path class="cls-5" d="M35.3,45.47l0,0.33a2,2,0,0,0-.31,0,3,3,0,0,1-.71,0A0.56,0.56,0,0,1,34,45.23a4.18,4.18,0,0,0-.58-2,4.14,4.14,0,0,1-1.16-1.75,2,2,0,0,1,.26-1.67,3.6,3.6,0,0,1,2.29-1.4,6.07,6.07,0,0,1,1.32-.07,3.88,3.88,0,0,1,3,1.55s1.2,1.45-.74,3.07a3.52,3.52,0,0,0-1,1.36A10.22,10.22,0,0,0,37,45.53a0.46,0.46,0,0,1-.41.38,1.3,1.3,0,0,1-.64-0.11,0.27,0.27,0,0,1-.12-0.26l0-2.1a0.67,0.67,0,0,0,0-.22l0.06,0a0.24,0.24,0,0,0,.25.18A2.64,2.64,0,0,0,37,43.06a1.75,1.75,0,0,0,.68-0.92s0.06-.49-0.63-0.5a1.12,1.12,0,0,0-.53.33,0.66,0.66,0,0,0-.33-0.48,1.05,1.05,0,0,0-.49,0,0.64,0.64,0,0,0-.34.24,2.43,2.43,0,0,0-.13.34,0.92,0.92,0,0,0-.53-0.23,0.63,0.63,0,0,0-.4.16,0.43,0.43,0,0,0-.09.45,1.08,1.08,0,0,0,.54.48,0.89,0.89,0,0,1,.54.47l0,2.07"/></svg>