<svg id="Layer_1" data-name="Layer 1" xmlns="http://www.w3.org/2000/svg" viewBox="0 0 230 110"><defs><style>.cls-1{fill:none;stroke:#3d3d3d;stroke-miterlimit:10;stroke-width:3px;}.cls-2,.cls-4{fill:#231f20;}.cls-2,.cls-5,.cls-6,.cls-7{fill-rule:evenodd;}.cls-3,.cls-7{fill:#ed1c24;}.cls-5{fill:#fcda42;}.cls-6{fill:#2e3192;}</style></defs><title>RomaniaPress</title><rect class="cls-1" width="230" height="110"/><path class="cls-2" d="M195.2,53.84a13.64,13.64,0,0,1-.38,3.13c-0.55,2.17-1.56,3.5-3,4l-9.12,3c1.67-1.1,2.51-3.13,2.51-6.07a9.07,9.07,0,0,0-.06-1,5.72,5.72,0,0,0-2.29-4.26,5.61,5.61,0,0,0-3.33-1.3l9.38-2.82a5.25,5.25,0,0,1,1.14-.15,3.11,3.11,0,0,1,2.7,1.68,7.79,7.79,0,0,1,1.09,3.64l1.37,0.2h0Zm-12.92,3.72c0,0.32,0,.63,0,0.94a11.06,11.06,0,0,1-.9,4.4,5.67,5.67,0,0,1-2,2.62L157,79.8a10.72,10.72,0,0,1-5.87,1.76,8.1,8.1,0,0,1-2.38-.35c-3.06-1-5.33-3.34-6.8-7.06a28,28,0,0,1-1.74-10.68,15.27,15.27,0,0,1,1.87-7.69A6.61,6.61,0,0,1,148,52.07l27.8-.24A6.71,6.71,0,0,1,180,53.21a6,6,0,0,1,2.27,4.34h0ZM193,53.84c0,0.08.05,0.05,0.05-.08a6.2,6.2,0,0,0-.81-2.66q-1-2.09-2.54-2.09a1.73,1.73,0,0,0-.63.12l-7.08,2a3.53,3.53,0,0,1,2,1.06,6,6,0,0,1,2,4l7-2.35h0Zm1.27,0.55L186.09,57a13.15,13.15,0,0,1-.4,3.42,3.32,3.32,0,0,1-.9,2l6.84-2.34a4.1,4.1,0,0,0,2.2-2.59,7.88,7.88,0,0,0,.61-2.9c0-.23,0-0.35-0.1-0.35a0.3,0.3,0,0,0-.08.12h0Zm-13,3.72a5.59,5.59,0,0,0-2.11-4.26,6.36,6.36,0,0,0-4.2-1.22L151.92,53c1.65,0.43,3,1.75,4.09,4a23.24,23.24,0,0,1,1.9,9.25,17.41,17.41,0,0,1-.87,5.59L160.77,70a24.88,24.88,0,0,0,.61-3.65l19.93-6.76a8.78,8.78,0,0,0,0-1.5h0Zm-0.1,2.19-18.47,6.94q-0.25,6.9-3.57,9.87l19-11.83a6.76,6.76,0,0,0,3-5h0Zm-21,11.4L155,74.56a6.84,6.84,0,0,1-2,.43,7.76,7.76,0,0,1-2.7-.12q-4-1.2-4-8.42c0-.47,0-0.88,0-1.26L155.51,63,155.57,64l-7.82,1.72a12.29,12.29,0,0,0-.06,1.32q0,5.37,3.14,6.31a4.54,4.54,0,0,0,1.4.23,3.55,3.55,0,0,0,3.32-2.42,11.09,11.09,0,0,0,.82-4.89,19.73,19.73,0,0,0-1.77-8.38q-1.78-3.49-4.87-4a10.48,10.48,0,0,0-1.28-.08,5.76,5.76,0,0,0-4.93,2.46c-1.27,1.7-1.9,4.1-1.9,7.22q0,14,7.85,15.89a9.94,9.94,0,0,0,2.3.28q5.93,0,8.51-8h0Zm30.17-21.19-5.12,1.72-0.69-.75,4.79-1.6,1,0.63h0Zm1.19,2.58-4.69,1.6-0.68-1.18,4.68-1.72,0.69,1.3h0Zm1.48,3.25-1,2.23-5.46,2,0.43-2.07,6-2.13h0Zm-15.37-1.79-6.21.61-1.46-1.28,6.24-.32,1.43,1h0Zm2,3L173.24,59l-0.43-2.15,6.31-1.06,0.68,1.72h0Zm-0.08,4.5-0.59,1.52-15.49,9L164.27,69l15.43-6.9h0Zm-7.83-1.18-10.93,2.7a42.67,42.67,0,0,0-.68-4.54,9.6,9.6,0,0,0-2.64-4.61l10.74-.55a11.7,11.7,0,0,1,2.83,2.82,10.7,10.7,0,0,1,.68,4.18h0Zm-18.65-3.21-9.14.43,1.27-2h7.08l0.78,1.52h0Zm1.42,3.76-11.42,2.15L143.5,61l10.56-1.1,0.58,1.52h0Zm0.63,6.23-5.12,1.72-0.25-1.84,5.37-1.28v1.4h0Zm0.16,1.8L155,71.11l-2.12.94-1.55-.75,4.1-1.83h0Zm2.14,6.27L156,77.22l-3.22,1.1,2.48-1.64,2.3-.94h0Zm-12-7.1-1.87.51-0.34-2.58,2-.43,0.16,2.5h0ZM152,76.47L149.55,78,147,76.59l1.95-1.1,3.07,1h0Zm-4.93-2.9-1.72.87L144.18,72l1.87-.78,1,2.38h0Z"/><path class="cls-3" d="M39.06,49.09h2.73L43,40.77H44.4c1.47,0,2.21.93,2.33,3.5a48,48,0,0,0,.43,4.82H50a42.43,42.43,0,0,1-.57-5.66c-0.14-1.92-.59-3.32-1.64-3.83l0-.09a5.93,5.93,0,0,0,3.7-5.78A4.66,4.66,0,0,0,50,30.08a5.84,5.84,0,0,0-4-1.32,15.17,15.17,0,0,0-3.94.48l-3,19.85h0Zm5.36-17.36a4.42,4.42,0,0,1,1.47-.18,2.48,2.48,0,0,1,2.73,2.69A3.61,3.61,0,0,1,45,38.11H43.45l1-6.38h0ZM67.7,49.09l1-6.91c0.43-3,1.9-5.15,3.18-5.15,1.12,0,1.38,1,1.38,2.1a10.89,10.89,0,0,1-.14,1.71l-1.23,8.26h2.66l1-7C76,39,77.43,37,78.69,37c1,0,1.42.84,1.42,2.07a16.36,16.36,0,0,1-.17,1.86l-1.21,8.14h2.68l1.28-8.53a24.84,24.84,0,0,0,.19-2.48c0-2.6-1.23-3.89-2.82-3.89s-3.06,1-4.08,3c-0.1-1.56-.93-3-2.73-3-1.5,0-2.92.93-4,2.87h0l0.24-2.54h-2.4c-0.12,1.26-.31,2.78-0.57,4.52L65,49.09H67.7Zm27,0a42.61,42.61,0,0,1,.47-6.65l1.19-7.6a10,10,0,0,0-3.49-.66c-5.39,0-8.14,5.3-8.14,10.27,0,2.93,1.35,5,3.42,5,1.47,0,3-.93,4.13-3.62h0.07c-0.09,1.26-.19,2.42-0.21,3.29h2.56Zm-2-8.23c-0.55,3.71-2.11,5.75-3.39,5.75s-1.66-1.26-1.66-2.78c0-3.32,2-6.94,4.53-6.94a3.72,3.72,0,0,1,1.14.15l-0.62,3.83h0Zm7.52,8.23,1-6.74c0.5-3.41,2.11-5.33,3.37-5.33,1.09,0,1.45.9,1.45,2.1a13.81,13.81,0,0,1-.14,1.74l-1.23,8.23h2.75l1.28-8.47a17.92,17.92,0,0,0,.21-2.42c0-2.75-1.31-4-2.94-4s-3.09,1-4.15,3h0l0.24-2.63H99.48c-0.14,1.26-.31,2.78-0.59,4.52l-1.5,10.06h2.75Zm13.05,0,2.21-14.58h-2.78l-2.18,14.58h2.75Zm1.31-16.67a1.88,1.88,0,0,0,1.71-2.1,1.65,1.65,0,0,0-1.47-1.89,1.9,1.9,0,0,0-1.66,2.13,1.59,1.59,0,0,0,1.42,1.86h0Zm12,16.67a42.59,42.59,0,0,1,.47-6.65l1.19-7.6a10,10,0,0,0-3.49-.66c-5.39,0-8.14,5.3-8.14,10.27,0,2.93,1.35,5,3.42,5,1.47,0,3-.93,4.13-3.62h0.07c-0.09,1.26-.19,2.42-0.21,3.29h2.56Zm-2-8.23c-0.55,3.71-2.11,5.75-3.39,5.75s-1.66-1.26-1.66-2.78c0-3.32,2-6.94,4.53-6.94a3.72,3.72,0,0,1,1.14.15l-0.62,3.83h0ZM59.09,34.18c-3.94,0-6.67,4.28-6.67,9.22,0,3.47,1.8,6,4.72,6,3.94,0,6.69-4.25,6.69-9.19,0-3.23-1.64-6-4.75-6h0Zm-0.33,2.69c1.68,0,2.21,1.86,2.21,3.35,0,2.9-1.38,6.5-3.44,6.5-1.4,0-2.25-1.41-2.25-3.41,0-2.72,1.28-6.44,3.49-6.44h0Z"/><path class="cls-4" d="M129.26,49.09H132l1.14-7.63a10.19,10.19,0,0,0,1.5.15,7,7,0,0,0,5-1.92,7.73,7.73,0,0,0,2-5.48,5.26,5.26,0,0,0-1.47-4,5.7,5.7,0,0,0-4.08-1.44,14.22,14.22,0,0,0-3.87.48l-3,19.85h0Zm5.34-17.33a4.65,4.65,0,0,1,1.52-.18c1.57,0,2.78.78,2.78,2.9,0,2.39-1.54,4.28-3.89,4.28a5.21,5.21,0,0,1-1.45-.18l1-6.83h0Zm9.85,17.33,0.88-5.87c0.45-3.11,1.71-5.63,3.68-5.63a2.62,2.62,0,0,1,.52.06l0.55-3.41a4,4,0,0,0-.59-0.06c-1.59,0-2.85,1.44-3.63,3.41h-0.07c0.12-1.08.19-2.1,0.26-3.08h-2.4c-0.14,1.32-.28,3.53-0.59,5.6l-1.35,9h2.75Zm14.19-3.38a5.73,5.73,0,0,1-3.18,1,2.45,2.45,0,0,1-2.37-1.5,5,5,0,0,1-.31-2.07c4.46,0.12,7.57-1.08,7.57-4.82,0-2.42-1.45-4.1-3.73-4.1-4,0-6.55,4.79-6.55,9.19,0,3.56,1.54,6,4.75,6a7.71,7.71,0,0,0,4.08-1.14l-0.26-2.54h0Zm-0.9-7.39c0,1.74-1.83,2.25-4.68,2.19,0.33-1.77,1.47-3.71,3.2-3.71a1.4,1.4,0,0,1,1.47,1.53h0Zm3,10a5.08,5.08,0,0,0,3.23,1,4.64,4.64,0,0,0,4.91-5,4.73,4.73,0,0,0-2.4-3.92c-1-.63-1.5-1.2-1.5-2a1.66,1.66,0,0,1,1.76-1.71,3.89,3.89,0,0,1,2.16.66l0.71-2.51a4.79,4.79,0,0,0-2.73-.75,4.61,4.61,0,0,0-2.4,8.59C165.67,43.52,166,44.09,166,45a1.74,1.74,0,0,1-1.78,1.8,5.38,5.38,0,0,1-2.78-1l-0.71,2.51h0Zm9.42,0a5.08,5.08,0,0,0,3.23,1,4.64,4.64,0,0,0,4.91-5,4.73,4.73,0,0,0-2.4-3.92c-1-.63-1.5-1.2-1.5-2a1.66,1.66,0,0,1,1.76-1.71,3.89,3.89,0,0,1,2.16.66l0.71-2.51a4.79,4.79,0,0,0-2.73-.75,4.61,4.61,0,0,0-2.4,8.59c1.14,0.75,1.52,1.32,1.52,2.25a1.74,1.74,0,0,1-1.78,1.8,5.38,5.38,0,0,1-2.78-1l-0.71,2.51h0Z"/><polygon class="cls-2" points="66.3 52.13 147.43 52.13 147.43 53.48 66.3 53.48 34.8 52.8 66.3 52.13 66.3 52.13"/><path d="M46.17,68.08H44.54L43.89,66h-3l-0.61,2.12H38.74l2.88-9.33H43.2l3,9.33h0Zm-2.75-3.69-1-3.46-1,3.46h2Zm4.65,4.14,1.62,0.25a0.78,0.78,0,0,0,.19.49,0.9,0.9,0,0,0,.64.19,1.37,1.37,0,0,0,.83-0.21,0.86,0.86,0,0,0,.28-0.45A3.42,3.42,0,0,0,51.69,68V67a1.85,1.85,0,0,1-1.61,1.1,1.91,1.91,0,0,1-1.71-1.15,4.71,4.71,0,0,1-.49-2.27,4.4,4.4,0,0,1,.65-2.6,1.93,1.93,0,0,1,1.61-.9,1.89,1.89,0,0,1,1.64,1.1V61.32h1.33v6.07A7.51,7.51,0,0,1,53,69.18a2.38,2.38,0,0,1-.44.93,1.92,1.92,0,0,1-.75.53,3.24,3.24,0,0,1-1.19.19,2.62,2.62,0,0,1-1.93-.59,2.06,2.06,0,0,1-.57-1.49c0-.06,0-0.13,0-0.22h0Zm1.27-4a2.92,2.92,0,0,0,.33,1.58,1,1,0,0,0,.81.5,1.05,1.05,0,0,0,.88-0.51,2.66,2.66,0,0,0,.36-1.52A2.82,2.82,0,0,0,51.37,63a1,1,0,0,0-.87-0.51,1,1,0,0,0-.84.5,2.8,2.8,0,0,0-.33,1.53h0Zm9.53,1.37,1.41,0.3a3,3,0,0,1-.86,1.49,2.15,2.15,0,0,1-1.47.51,2.23,2.23,0,0,1-2.07-1.15,4.63,4.63,0,0,1-.53-2.33,4.38,4.38,0,0,1,.7-2.63,2.1,2.1,0,0,1,1.76-1,2.18,2.18,0,0,1,1.89,1,5.28,5.28,0,0,1,.66,3.05H56.8a2.11,2.11,0,0,0,.34,1.24,1,1,0,0,0,.82.44,0.76,0.76,0,0,0,.56-0.23,1.51,1.51,0,0,0,.34-0.74h0Zm0.08-1.81a2,2,0,0,0-.32-1.18,0.9,0.9,0,0,0-.74-0.4,0.91,0.91,0,0,0-.77.43,1.94,1.94,0,0,0-.3,1.16h2.12Zm8.69,4H66.22V64.63a6.7,6.7,0,0,0-.09-1.42,1,1,0,0,0-.3-0.5,0.73,0.73,0,0,0-.49-0.18,1,1,0,0,0-.66.25,1.31,1.31,0,0,0-.4.68A7.31,7.31,0,0,0,64.17,65v3.06H62.75V61.32h1.32v1a2.05,2.05,0,0,1,1.77-1.15,1.76,1.76,0,0,1,.86.21,1.52,1.52,0,0,1,.59.55,2.24,2.24,0,0,1,.28.75,6.86,6.86,0,0,1,.08,1.2v4.2h0Z"/><path d="M72.78,61.32v1.43h-1v2.72a8.42,8.42,0,0,0,0,1,0.41,0.41,0,0,0,.13.23,0.35,0.35,0,0,0,.24.09,1.56,1.56,0,0,0,.57-0.17L72.9,68a2.32,2.32,0,0,1-1.12.27,1.48,1.48,0,0,1-.69-0.16,1.08,1.08,0,0,1-.45-0.42,2,2,0,0,1-.2-0.7,11.18,11.18,0,0,1,0-1.26V62.75H69.74V61.32h0.65V60l1.42-1v2.39h1Zm-1.84,7.53h1.28V70a2.26,2.26,0,0,1-.28,1.16,1.83,1.83,0,0,1-.84.74l-0.25-.67a1.15,1.15,0,0,0,.71-0.77H70.94V68.85h0ZM75,60.41V58.75h1.42v1.66H75Zm0,7.68V61.32h1.42v6.76H75Zm5.18-4.7-1.29-.29a2.65,2.65,0,0,1,.75-1.45,2.32,2.32,0,0,1,1.57-.47,2.77,2.77,0,0,1,1.41.28,1.58,1.58,0,0,1,.65.72,4.58,4.58,0,0,1,.19,1.6l0,2.09a8.92,8.92,0,0,0,.07,1.31,4.53,4.53,0,0,0,.25.91h-1.4c0-.12-0.08-0.3-0.14-0.53s0-.18,0-0.21a2.65,2.65,0,0,1-.78.67,1.84,1.84,0,0,1-.88.22,1.62,1.62,0,0,1-1.3-.56,2.15,2.15,0,0,1-.48-1.43,2.32,2.32,0,0,1,.22-1,1.59,1.59,0,0,1,.61-0.69,4.09,4.09,0,0,1,1.13-.42,6.51,6.51,0,0,0,1.38-.44V63.49a1.08,1.08,0,0,0-.2-0.74,1,1,0,0,0-.76-0.22,0.86,0.86,0,0,0-.59.19,1.35,1.35,0,0,0-.34.66h0Zm1.9,1.45a7.43,7.43,0,0,1-.86.27,2.32,2.32,0,0,0-.77.31,0.81,0.81,0,0,0-.28.63,1,1,0,0,0,.22.65A0.7,0.7,0,0,0,81,67a1.08,1.08,0,0,0,.73-0.32A1.14,1.14,0,0,0,82,66.07a4.36,4.36,0,0,0,.06-0.87V64.84h0Zm11.83,3.25H92.61v-1a2.37,2.37,0,0,1-.78.86,1.66,1.66,0,0,1-.9.28,1.91,1.91,0,0,1-1.58-.94,4.52,4.52,0,0,1-.66-2.62,4.46,4.46,0,0,1,.64-2.61,1.93,1.93,0,0,1,1.62-.9,1.88,1.88,0,0,1,1.55.94V58.75h1.42v9.33h0Zm-3.78-3.53a3.79,3.79,0,0,0,.24,1.57,1.06,1.06,0,0,0,1,.7,1,1,0,0,0,.83-0.53,2.91,2.91,0,0,0,.34-1.57,3.21,3.21,0,0,0-.33-1.68,1,1,0,0,0-1.7,0,2.72,2.72,0,0,0-.34,1.51h0Zm9.54,1.38,1.41,0.3a3,3,0,0,1-.86,1.49,2.15,2.15,0,0,1-1.47.51,2.23,2.23,0,0,1-2.07-1.15,4.63,4.63,0,0,1-.53-2.33,4.38,4.38,0,0,1,.7-2.63,2.1,2.1,0,0,1,1.76-1,2.18,2.18,0,0,1,1.89,1,5.28,5.28,0,0,1,.66,3.05H97.61A2.11,2.11,0,0,0,98,66.46a1,1,0,0,0,.82.44,0.76,0.76,0,0,0,.56-0.23,1.51,1.51,0,0,0,.34-0.74h0Zm0.08-1.81a2,2,0,0,0-.32-1.18,0.9,0.9,0,0,0-.74-0.4,0.91,0.91,0,0,0-.77.43,1.94,1.94,0,0,0-.3,1.16h2.12Zm6.7,4V58.75h2.4a6.91,6.91,0,0,1,1.78.14,2,2,0,0,1,1.07.91,3.45,3.45,0,0,1,.43,1.82,3.7,3.7,0,0,1-.25,1.44,2.49,2.49,0,0,1-.63.92,2,2,0,0,1-.77.44,6.8,6.8,0,0,1-1.55.13h-1v3.52h-1.49Zm1.49-7.75V63h0.82a3.11,3.11,0,0,0,1.18-.15,1.06,1.06,0,0,0,.47-0.46,1.51,1.51,0,0,0,.17-0.73,1.41,1.41,0,0,0-.24-0.84,1,1,0,0,0-.6-0.41,5.66,5.66,0,0,0-1.07-.06h-0.72Zm8,7.75h-1.42V61.32h1.32v1a2.8,2.8,0,0,1,.61-0.9,1,1,0,0,1,.61-0.22,1.53,1.53,0,0,1,.93.34l-0.44,1.56a1.09,1.09,0,0,0-.66-0.29,0.68,0.68,0,0,0-.5.21,1.52,1.52,0,0,0-.33.75,13.33,13.33,0,0,0-.12,2.27v2.09h0Zm7-2.15,1.41,0.3a3,3,0,0,1-.86,1.49,2.15,2.15,0,0,1-1.47.51A2.23,2.23,0,0,1,120,67.08a4.63,4.63,0,0,1-.53-2.33,4.38,4.38,0,0,1,.7-2.63,2.1,2.1,0,0,1,1.76-1,2.18,2.18,0,0,1,1.89,1,5.28,5.28,0,0,1,.66,3.05H120.9a2.11,2.11,0,0,0,.34,1.24,1,1,0,0,0,.82.44,0.76,0.76,0,0,0,.56-0.23,1.51,1.51,0,0,0,.34-0.74h0ZM123,64.12a2,2,0,0,0-.32-1.18,0.9,0.9,0,0,0-.74-0.4,0.91,0.91,0,0,0-.77.43,1.94,1.94,0,0,0-.3,1.16H123Zm3.32,2,1.42-.27a1.41,1.41,0,0,0,.37.79,1.06,1.06,0,0,0,.78.27,1.17,1.17,0,0,0,.83-0.26,0.62,0.62,0,0,0,.19-0.48,0.55,0.55,0,0,0-.1-0.34,1,1,0,0,0-.47-0.23,6.62,6.62,0,0,1-2.18-.87,1.9,1.9,0,0,1-.64-1.52,2.1,2.1,0,0,1,.55-1.48,2.21,2.21,0,0,1,1.71-.6,2.5,2.5,0,0,1,1.64.45,2.38,2.38,0,0,1,.74,1.34l-1.34.31a1.07,1.07,0,0,0-.33-0.6,1,1,0,0,0-.68-0.21,1.27,1.27,0,0,0-.8.2,0.46,0.46,0,0,0-.16.36,0.43,0.43,0,0,0,.14.32,4.55,4.55,0,0,0,1.32.5,3.53,3.53,0,0,1,1.58.8,1.88,1.88,0,0,1,.44,1.33,2.28,2.28,0,0,1-.62,1.6,2.35,2.35,0,0,1-1.82.67,2.54,2.54,0,0,1-1.73-.56,2.66,2.66,0,0,1-.83-1.52h0Zm8.56-2.77-1.29-.29a2.65,2.65,0,0,1,.75-1.45,2.31,2.31,0,0,1,1.57-.47,2.77,2.77,0,0,1,1.41.28,1.58,1.58,0,0,1,.65.72,4.57,4.57,0,0,1,.19,1.6l0,2.09a8.94,8.94,0,0,0,.07,1.31,4.54,4.54,0,0,0,.25.91h-1.4c0-.12-0.08-0.3-0.14-0.53s0-.18,0-0.21a2.65,2.65,0,0,1-.78.67,1.84,1.84,0,0,1-.88.22,1.62,1.62,0,0,1-1.3-.56,2.15,2.15,0,0,1-.48-1.43,2.32,2.32,0,0,1,.22-1,1.59,1.59,0,0,1,.61-0.69,4.09,4.09,0,0,1,1.13-.42,6.5,6.5,0,0,0,1.38-.44V63.49a1.08,1.08,0,0,0-.2-0.74,1,1,0,0,0-.76-0.22,0.86,0.86,0,0,0-.59.19,1.35,1.35,0,0,0-.34.66h0Zm1.9,1.45a7.43,7.43,0,0,1-.86.27,2.32,2.32,0,0,0-.77.31,0.81,0.81,0,0,0-.28.63,1,1,0,0,0,.22.65,0.7,0.7,0,0,0,.56.27,1.08,1.08,0,0,0,.73-0.32,1.14,1.14,0,0,0,.34-0.59,4.36,4.36,0,0,0,.06-0.87V64.84h0Zm0.05-6.24h0.69a2.28,2.28,0,0,1-.48,1.36,1.46,1.46,0,0,1-2.19,0,2.29,2.29,0,0,1-.48-1.36h0.69a1.1,1.1,0,0,0,.25.68,1,1,0,0,0,1.26,0,1.11,1.11,0,0,0,.25-0.68h0Z"/><path class="cls-3" d="M180.8,38.38a1.26,1.26,0,0,0,1.11-1.45,1.25,1.25,0,0,0-1.11-1.45,1.27,1.27,0,0,0-1.11,1.45,1.27,1.27,0,0,0,1.11,1.45h0Zm2.55-.2h1.79V33.55a4.85,4.85,0,0,1,.06-0.7,1.74,1.74,0,0,1,1.6-1.71,2,2,0,0,1,.52.07V29.09a1.51,1.51,0,0,0-.42-0.05A2.25,2.25,0,0,0,185,30.95H184.9l-0.06-1.71h-1.56c0,0.81.06,1.67,0.06,2.88v6.06h0ZM191.61,29c-2.14,0-3.67,1.8-3.67,4.73s1.54,4.61,3.55,4.61c1.8,0,3.64-1.47,3.64-4.75,0-2.72-1.41-4.59-3.52-4.59h0Zm0,1.65c1.22,0,1.72,1.6,1.72,3,0,1.8-.71,3.06-1.73,3.06s-1.76-1.3-1.76-3c0-1.49.51-3,1.77-3h0Z"/><path class="cls-5" d="M157.14,54.1l8.1-.45,0.31,0a8.15,8.15,0,0,1,3.15,8.26l-8,2a16.88,16.88,0,0,0-3.6-9.77h0Z"/><path class="cls-6" d="M157.14,54.1l4.32-.24c1.19,0.28,4.38,4.14,3.55,8.92l-4.27,1.09a16.88,16.88,0,0,0-3.6-9.77h0Z"/><path class="cls-7" d="M168.31,53.48c1.75,0,3.91,3.47,3.69,7.52-1.22.31-2.52,0.69-3.72,0.93,1.35-1.23-.73-7.87-3.16-8.28,0.9-.14,2.28-0.13,3.19-0.18h0Z"/></svg>